<?xml version="1.0" standalone="no"?>
<!DOCTYPE svg PUBLIC "-//W3C//DTD SVG 20010904//EN"
 "http://www.w3.org/TR/2001/REC-SVG-20010904/DTD/svg10.dtd">
<svg version="1.0" xmlns="http://www.w3.org/2000/svg"
 width="377.000000pt" height="377.000000pt" viewBox="0 0 377.000000 377.000000"
 preserveAspectRatio="xMidYMid meet">
<metadata>
Created by potrace 1.14, written by Peter Selinger 2001-2017
</metadata>
<g transform="translate(0.000000,377.000000) scale(0.100000,-0.100000)"
fill="#000000" stroke="none">
<path d="M1725 3753 c-381 -39 -711 -169 -1005 -396 -94 -72 -264 -248 -342
-351 -187 -251 -320 -579 -353 -871 -4 -33 -9 -73 -11 -90 -6 -46 -6 -264 1
-320 13 -122 17 -144 30 -210 105 -517 426 -967 886 -1240 175 -104 456 -206
634 -230 22 -3 67 -9 100 -14 64 -10 390 -7 465 4 358 51 701 208 978 448 285
247 487 578 581 954 29 114 33 139 47 268 16 145 7 371 -21 520 -150 788 -770
1391 -1553 1511 -96 14 -358 24 -437 17z m355 -68 c604 -70 1137 -443 1410
-985 82 -164 156 -392 175 -540 31 -254 24 -435 -30 -690 -22 -110 -94 -301
-158 -420 -187 -353 -475 -628 -837 -798 -157 -75 -318 -123 -505 -154 -88
-14 -376 -17 -470 -5 -228 29 -456 102 -644 204 -76 41 -238 146 -251 162 -3
3 -27 24 -55 46 -180 145 -354 368 -463 596 -73 152 -114 272 -149 438 -23
111 -26 150 -27 326 -1 215 3 259 34 405 103 473 401 897 807 1149 252 156
522 247 798 268 44 3 81 7 83 8 5 4 229 -3 282 -10z"/>
<path d="M1555 2730 c-8 -3 -32 -29 -55 -59 l-40 -55 0 -405 1 -406 38 -55 38
-55 164 0 164 0 0 518 c1 512 0 517 -20 518 -88 4 -278 3 -290 -1z m269 -508
c-1 -257 -2 -472 -3 -478 -1 -8 -41 -11 -131 -10 l-130 1 -30 45 -30 45 0 388
0 388 33 44 32 44 130 1 130 0 -1 -468z"/>
<path d="M1890 2213 l0 -521 163 0 163 0 39 56 40 57 0 405 1 405 -44 58 c-24
31 -49 57 -55 58 -7 0 -78 1 -160 2 l-147 2 0 -522z m333 429 l32 -44 0 -385
0 -385 -32 -48 -32 -47 -130 0 -131 0 0 479 0 479 131 -3 131 -3 31 -43z"/>
<path d="M864 1435 c-3 -6 -3 -98 -2 -205 l3 -195 66 -3 c63 -3 67 -1 84 25
16 24 18 49 17 187 -1 193 -5 200 -103 201 -36 1 -63 -3 -65 -10z m127 -37
c14 -26 13 -307 -2 -324 -8 -10 -26 -14 -53 -12 l-41 3 -1 170 c-1 94 0 173 2
176 7 13 86 2 95 -13z"/>
<path d="M1075 1442 c-2 -2 -4 -91 -5 -197 -1 -165 2 -193 15 -198 10 -4 15 0
16 11 0 9 2 31 2 47 2 29 3 30 52 30 50 0 50 0 53 -35 1 -19 5 -41 8 -49 8
-23 30 5 28 36 -4 44 -4 70 -2 196 1 110 0 120 -21 140 -17 18 -33 22 -82 22
-33 0 -62 -1 -64 -3z m126 -45 c6 -9 8 -63 7 -119 l-3 -103 -51 -3 -51 -3 2
123 c1 68 3 123 3 124 1 0 20 0 43 -1 27 -1 44 -7 50 -18z"/>
<path d="M1300 1423 c-16 -20 -18 -45 -19 -182 -1 -146 1 -161 20 -185 17 -22
28 -26 67 -26 77 1 84 18 84 211 0 152 -1 162 -21 183 -31 31 -106 30 -131 -1z
m103 -18 c15 -6 17 -24 17 -157 0 -82 -5 -158 -10 -168 -13 -25 -77 -25 -90 0
-15 28 -9 302 7 321 14 16 44 18 76 4z"/>
<path d="M1702 1442 c-9 -3 -12 -62 -12 -208 l0 -204 84 0 c87 0 98 5 88 43
-5 21 -32 23 -32 2 0 -12 -12 -14 -52 -12 l-53 2 -3 38 -3 38 64 -2 c69 -2 89
4 81 25 -4 10 -23 13 -75 11 l-70 -4 2 122 1 122 51 0 c30 -1 52 -6 55 -13 7
-21 30 -13 34 13 3 14 2 26 -1 26 -18 4 -150 4 -159 1z"/>
<path d="M1904 1437 c-2 -7 -3 -98 -2 -201 2 -141 6 -190 16 -194 6 -2 12 4
12 14 0 9 12 58 27 107 l27 90 28 -84 c15 -46 28 -93 28 -104 0 -13 6 -22 15
-22 17 0 17 -9 17 227 l1 175 -24 -1 c-16 0 -23 -5 -20 -15 7 -21 17 -193 12
-215 -2 -10 -14 17 -28 60 -13 43 -27 76 -29 73 -3 -3 -15 -38 -28 -78 l-23
-74 1 105 c1 58 5 111 10 119 5 8 4 16 -5 22 -19 12 -29 11 -35 -4z"/>
<path d="M2173 1442 c-53 -5 -60 -28 -62 -200 -2 -196 5 -212 84 -212 82 0 87
13 89 202 1 197 -11 220 -111 210z m65 -44 c8 -8 12 -59 12 -163 0 -104 -4
-155 -12 -163 -19 -19 -76 -15 -87 6 -11 22 -11 291 1 315 10 20 67 24 86 5z"/>
<path d="M2325 1440 c-5 -9 -4 -383 1 -391 3 -5 10 -6 17 -3 7 2 11 22 10 50
l-2 45 52 -3 52 -3 5 -44 c3 -25 11 -46 18 -49 14 -4 17 16 12 98 -1 14 -1 79
0 144 1 149 -7 161 -101 161 -33 0 -62 -2 -64 -5z m126 -41 c5 -8 8 -61 7
-119 l-3 -105 -50 0 -50 0 -1 115 c0 63 3 118 8 121 16 10 80 2 89 -12z"/>
<path d="M2744 1435 c-3 -6 -3 -73 -2 -149 l3 -139 67 -36 c38 -20 68 -40 68
-44 0 -4 -31 -6 -70 -4 -63 4 -70 2 -70 -14 0 -17 9 -19 84 -19 l85 0 3 33 c3
31 0 34 -67 68 l-70 37 -2 121 c-2 136 -10 125 85 123 28 -1 52 3 52 8 0 6 1
13 3 18 4 12 -165 9 -169 -3z"/>
<path d="M1486 1433 c-3 -3 -6 -93 -6 -200 0 -167 2 -194 16 -200 19 -7 44 14
28 25 -13 8 -18 212 -6 212 4 0 19 -33 32 -72 l23 -73 23 80 22 80 1 -112 c1
-67 -3 -113 -9 -113 -5 0 -7 -7 -4 -15 10 -24 44 -19 45 8 1 26 1 283 0 344
-1 69 -24 43 -51 -57 -13 -50 -27 -90 -31 -90 -3 0 -18 41 -33 90 -28 88 -37
106 -50 93z"/>
<path d="M2675 1429 c-2 -8 -6 -68 -7 -134 l-3 -120 -51 -3 -51 -3 -1 113 c0
151 0 148 -17 148 -13 0 -15 -28 -15 -190 0 -120 4 -190 10 -190 22 0 25 7 24
48 l-2 43 52 -3 51 -3 3 -42 c2 -24 9 -44 18 -47 8 -3 14 1 15 9 1 28 1 85 -1
93 -1 4 -1 12 0 17 8 39 2 257 -8 267 -8 8 -13 8 -17 -3z"/>
</g>
</svg>
